<svg xmlns="http://www.w3.org/2000/svg" viewBox="0 0 256 256">
    <g fill="#61dafb">
        <path d="M256,128.026c0,-16.959 -21.238,-33.031 -53.799,-42.997c7.514,-33.187 4.175,-59.591 -10.54,-68.044c-3.392,-1.983 -7.358,-2.922 -11.689,-2.922l0,11.636c2.401,0 4.331,0.47 5.949,1.357c7.097,4.07 10.175,19.568 7.775,39.501c-0.574,4.905 -1.513,10.071 -2.661,15.341c-10.228,-2.505 -21.395,-4.435 -33.135,-5.688c-7.045,-9.653 -14.35,-18.42 -21.708,-26.09c17.011,-15.811 32.979,-24.473 43.832,-24.473l0,-11.636c-14.349,0 -33.134,10.227 -52.128,27.969c-18.994,-17.638 -37.779,-27.761 -52.129,-27.761l0,11.637c10.801,0 26.821,8.61 43.832,24.316c-7.305,7.671 -14.611,16.385 -21.551,26.038c-11.793,1.253 -22.96,3.183 -33.187,5.74c-1.2,-5.218 -2.087,-10.279 -2.713,-15.132c-2.453,-19.933 0.574,-35.431 7.618,-39.553c1.565,-0.94 3.601,-1.357 6.001,-1.357l0,-11.637c-4.383,0 -8.349,0.94 -11.793,2.923c-14.663,8.453 -17.95,34.804 -10.384,67.887c-32.457,10.019 -53.59,26.038 -53.59,42.945c0,16.959 21.238,33.031 53.799,42.997c-7.514,33.187 -4.175,59.591 10.54,68.044c3.392,1.983 7.358,2.922 11.741,2.922c14.35,0 33.135,-10.227 52.129,-27.969c18.994,17.638 37.779,27.761 52.129,27.761c4.383,0 8.349,-0.94 11.792,-2.922c14.663,-8.454 17.951,-34.805 10.384,-67.888c32.353,-9.967 53.486,-26.038 53.486,-42.945Zm-67.94,-34.805c-1.93,6.732 -4.331,13.672 -7.044,20.612c-2.14,-4.175 -4.383,-8.349 -6.836,-12.524c-2.4,-4.174 -4.957,-8.244 -7.514,-12.21c7.41,1.096 14.559,2.453 21.394,4.122Zm-23.899,55.573c-4.07,7.045 -8.244,13.724 -12.575,19.933c-7.775,0.679 -15.654,1.044 -23.586,1.044c-7.879,0 -15.759,-0.365 -23.481,-0.992c-4.331,-6.209 -8.558,-12.836 -12.628,-19.828c-3.966,-6.836 -7.566,-13.776 -10.854,-20.768c3.235,-6.993 6.888,-13.985 10.802,-20.821c4.07,-7.044 8.244,-13.723 12.575,-19.933c7.775,-0.678 15.654,-1.043 23.586,-1.043c7.879,0 15.759,0.365 23.481,0.991c4.331,6.21 8.558,12.837 12.628,19.829c3.966,6.836 7.567,13.776 10.854,20.768c-3.287,6.992 -6.888,13.984 -10.802,20.82Zm16.855,-6.783c2.818,6.992 5.218,13.984 7.201,20.768c-6.836,1.669 -14.037,3.078 -21.499,4.174c2.557,-4.018 5.114,-8.14 7.514,-12.367c2.401,-4.174 4.644,-8.401 6.784,-12.575Zm-52.912,55.677c-4.852,-5.01 -9.705,-10.593 -14.506,-16.698c4.696,0.209 9.497,0.365 14.35,0.365c4.905,0 9.758,-0.104 14.506,-0.365c-4.696,6.105 -9.549,11.688 -14.35,16.698Zm-38.822,-30.735c-7.41,-1.096 -14.559,-2.452 -21.395,-4.122c1.931,-6.732 4.332,-13.672 7.045,-20.612c2.139,4.175 4.383,8.349 6.836,12.524c2.452,4.174 4.957,8.244 7.514,12.21Zm38.561,-108.589c4.853,5.01 9.706,10.593 14.507,16.698c-4.697,-0.208 -9.497,-0.365 -14.35,-0.365c-4.905,0 -9.758,0.104 -14.506,0.365c4.696,-6.105 9.549,-11.688 14.349,-16.698Zm-38.613,30.735c-2.557,4.018 -5.114,8.14 -7.515,12.367c-2.4,4.174 -4.644,8.349 -6.783,12.523c-2.818,-6.992 -5.218,-13.984 -7.201,-20.768c6.836,-1.617 14.037,-3.026 21.499,-4.122Zm-47.224,65.331c-18.472,-7.88 -30.422,-18.212 -30.422,-26.404c0,-8.192 11.95,-18.576 30.422,-26.404c4.487,-1.93 9.392,-3.652 14.454,-5.27c2.974,10.228 6.888,20.873 11.741,31.778c-4.801,10.854 -8.662,21.447 -11.585,31.622c-5.166,-1.617 -10.071,-3.392 -14.61,-5.322Zm28.073,74.566c-7.097,-4.07 -10.175,-19.568 -7.775,-39.501c0.574,-4.905 1.513,-10.071 2.661,-15.341c10.228,2.505 21.395,4.435 33.135,5.688c7.045,9.653 14.35,18.42 21.708,26.09c-17.011,15.811 -32.979,24.473 -43.832,24.473c-2.349,-0.052 -4.331,-0.522 -5.897,-1.409Zm123.773,-39.762c2.453,19.934 -0.574,35.431 -7.618,39.554c-1.565,0.939 -3.6,1.356 -6.001,1.356c-10.801,0 -26.821,-8.61 -43.832,-24.316c7.305,-7.671 14.611,-16.385 21.551,-26.038c11.793,-1.253 22.96,-3.183 33.187,-5.74c1.2,5.27 2.139,10.332 2.713,15.184Zm20.09,-34.804c-4.487,1.93 -9.392,3.652 -14.454,5.27c-2.974,-10.228 -6.888,-20.872 -11.741,-31.778c4.801,-10.854 8.662,-21.447 11.584,-31.622c5.166,1.618 10.071,3.392 14.663,5.322c18.472,7.88 30.422,18.212 30.422,26.404c-0.052,8.192 -12.002,18.577 -30.474,26.404Z"/>
        <circle cx="127.948" cy="128.026" r="23.847"/>
    </g>
</svg>